G04 #@! TF.FileFunction,Soldermask,Top*
%FSLAX46Y46*%
G04 Gerber Fmt 4.6, Leading zero omitted, Abs format (unit mm)*
G04 Created by KiCad (PCBNEW 4.0.6) date 09/05/17 06:11:10*
%MOMM*%
%LPD*%
G01*
G04 APERTURE LIST*
%ADD10C,0.100000*%
%ADD11C,2.500000*%
%ADD12R,2.900000X2.350000*%
%ADD13R,1.050000X0.800000*%
%ADD14R,1.400000X1.650000*%
%ADD15R,1.100000X1.700000*%
%ADD16R,1.700000X1.100000*%
%ADD17R,2.600000X1.600000*%
%ADD18R,1.460000X1.050000*%
G04 APERTURE END LIST*
D10*
D11*
X157761000Y-67845000D03*
X155221000Y-67845000D03*
X152681000Y-67845000D03*
X150141000Y-67845000D03*
X147601000Y-67845000D03*
X145061000Y-67845000D03*
D12*
X156561000Y-85110000D03*
X156561000Y-88160000D03*
D13*
X144401000Y-73505000D03*
X144401000Y-74805000D03*
X146301000Y-74155000D03*
X144401000Y-74155000D03*
X146301000Y-74805000D03*
X146301000Y-73505000D03*
D11*
X161571000Y-67845000D03*
X161571000Y-70385000D03*
X161571000Y-72925000D03*
X161571000Y-75465000D03*
X161571000Y-78005000D03*
X161571000Y-80545000D03*
X161571000Y-83085000D03*
X161571000Y-85625000D03*
X161571000Y-88165000D03*
X161571000Y-65305000D03*
X159031000Y-65305000D03*
X156491000Y-65305000D03*
X153951000Y-65305000D03*
X151411000Y-65305000D03*
X148871000Y-65305000D03*
X146331000Y-65305000D03*
X143791000Y-65305000D03*
X141251000Y-65305000D03*
X141251000Y-67845000D03*
X141251000Y-70385000D03*
X141251000Y-72925000D03*
X141251000Y-75465000D03*
X141251000Y-78005000D03*
X141251000Y-80545000D03*
X141251000Y-83085000D03*
X141251000Y-85625000D03*
X141251000Y-88165000D03*
D12*
X151541000Y-85120000D03*
X151541000Y-88170000D03*
X146321000Y-85120000D03*
X146321000Y-88170000D03*
D14*
X146341000Y-70925000D03*
X144341000Y-70925000D03*
D15*
X156211000Y-81245000D03*
X154311000Y-81245000D03*
X151791000Y-81245000D03*
X149891000Y-81245000D03*
X149091000Y-77225000D03*
X150991000Y-77225000D03*
D16*
X151471000Y-72855000D03*
X151471000Y-70955000D03*
X148891000Y-72845000D03*
X148891000Y-70945000D03*
D17*
X156831000Y-74575000D03*
X156831000Y-71775000D03*
D18*
X155391000Y-78885000D03*
X155391000Y-77935000D03*
X155391000Y-76985000D03*
X153191000Y-76985000D03*
X153191000Y-78885000D03*
M02*
