M48
;DRILL file {KiCad 4.0.6} date 09/05/17 06:11:15
;FORMAT={-:-/ absolute / inch / decimal}
FMAT,2
INCH,TZ
T1C0.016
T2C0.020
T3C0.059
%
G90
G05
M72
T1
X5.7646Y-2.7325
T2
X5.8233Y-3.1785
X5.8559Y-3.2695
X6.0264Y-3.2522
X6.0311Y-2.9778
X6.0355Y-2.7553
X6.0654Y-3.4715
X6.1733Y-3.0081
X6.1733Y-3.0604
X6.1906Y-2.7577
T3
X5.5611Y-2.5711
X5.5611Y-2.6711
X5.5611Y-2.7711
X5.5611Y-2.8711
X5.5611Y-2.9711
X5.5611Y-3.0711
X5.5611Y-3.1711
X5.5611Y-3.2711
X5.5611Y-3.3711
X5.5611Y-3.4711
X5.6611Y-2.5711
X5.7111Y-2.6711
X5.7611Y-2.5711
X5.8111Y-2.6711
X5.8611Y-2.5711
X5.9111Y-2.6711
X5.9611Y-2.5711
X6.0111Y-2.6711
X6.0611Y-2.5711
X6.1111Y-2.6711
X6.1611Y-2.5711
X6.2111Y-2.6711
X6.2611Y-2.5711
X6.3611Y-2.5711
X6.3611Y-2.6711
X6.3611Y-2.7711
X6.3611Y-2.8711
X6.3611Y-2.9711
X6.3611Y-3.0711
X6.3611Y-3.1711
X6.3611Y-3.2711
X6.3611Y-3.3711
X6.3611Y-3.4711
T0
M30
