G04 #@! TF.FileFunction,Copper,L2,Bot,Signal*
%FSLAX46Y46*%
G04 Gerber Fmt 4.6, Leading zero omitted, Abs format (unit mm)*
G04 Created by KiCad (PCBNEW 4.0.6) date 09/05/17 06:11:09*
%MOMM*%
%LPD*%
G01*
G04 APERTURE LIST*
%ADD10C,0.100000*%
%ADD11C,2.100000*%
%ADD12R,1.600000X1.800000*%
%ADD13R,2.200000X2.800000*%
%ADD14C,1.000000*%
%ADD15C,0.600000*%
%ADD16C,0.750000*%
%ADD17C,0.500000*%
G04 APERTURE END LIST*
D10*
D11*
X157761000Y-67845000D03*
X155221000Y-67845000D03*
X152681000Y-67845000D03*
X150141000Y-67845000D03*
X147601000Y-67845000D03*
X145061000Y-67845000D03*
D12*
X155331000Y-71945000D03*
X152791000Y-71945000D03*
X150251000Y-71945000D03*
X155331000Y-85045000D03*
X152791000Y-85045000D03*
X150251000Y-85045000D03*
D13*
X158781000Y-75245000D03*
X158781000Y-79245000D03*
X144081000Y-79245000D03*
X144081000Y-75245000D03*
D11*
X161571000Y-67845000D03*
X161571000Y-70385000D03*
X161571000Y-72925000D03*
X161571000Y-75465000D03*
X161571000Y-78005000D03*
X161571000Y-80545000D03*
X161571000Y-83085000D03*
X161571000Y-85625000D03*
X161571000Y-88165000D03*
X161571000Y-65305000D03*
X159031000Y-65305000D03*
X156491000Y-65305000D03*
X153951000Y-65305000D03*
X151411000Y-65305000D03*
X148871000Y-65305000D03*
X146331000Y-65305000D03*
X143791000Y-65305000D03*
X141251000Y-65305000D03*
X141251000Y-67845000D03*
X141251000Y-70385000D03*
X141251000Y-72925000D03*
X141251000Y-75465000D03*
X141251000Y-78005000D03*
X141251000Y-80545000D03*
X141251000Y-83085000D03*
X141251000Y-85625000D03*
X141251000Y-88165000D03*
D14*
X153191000Y-75635000D03*
X156801000Y-76405000D03*
X156801000Y-77735000D03*
X154061000Y-88175000D03*
X153071000Y-82605000D03*
X157241000Y-70045000D03*
X147911000Y-80735000D03*
X148741000Y-83045000D03*
X153301000Y-69985000D03*
D15*
X146421000Y-69405000D03*
D16*
X153191000Y-75635000D02*
X156021000Y-75635000D01*
X156021000Y-75635000D02*
X156801000Y-76415000D01*
X156801000Y-76415000D02*
X156801000Y-76405000D01*
X156801000Y-77735000D02*
X155331000Y-79205000D01*
X155331000Y-79205000D02*
X155331000Y-85045000D01*
X154671000Y-88165000D02*
X154071000Y-88165000D01*
X154071000Y-88165000D02*
X154061000Y-88175000D01*
X155331000Y-85045000D02*
X155331000Y-87505000D01*
X155331000Y-87505000D02*
X154671000Y-88165000D01*
X153071000Y-82605000D02*
X151461000Y-80995000D01*
X151461000Y-80995000D02*
X151461000Y-75515000D01*
X151461000Y-75515000D02*
X152441000Y-74535000D01*
X152441000Y-74535000D02*
X155741000Y-74535000D01*
X155741000Y-74535000D02*
X157241000Y-73035000D01*
X157241000Y-73035000D02*
X157241000Y-70045000D01*
D17*
X147911000Y-80735000D02*
X147911000Y-75625000D01*
X150251000Y-73285000D02*
X150251000Y-71945000D01*
X147911000Y-75625000D02*
X150251000Y-73285000D01*
X150251000Y-83795000D02*
X150251000Y-85045000D01*
X149501000Y-83045000D02*
X150251000Y-83795000D01*
X148741000Y-83045000D02*
X149501000Y-83045000D01*
X152791000Y-70495000D02*
X152791000Y-71945000D01*
X153301000Y-69985000D02*
X152791000Y-70495000D01*
X155331000Y-71945000D02*
X155331000Y-72735000D01*
X155331000Y-72735000D02*
X154391000Y-73675000D01*
X154391000Y-73675000D02*
X151751000Y-73675000D01*
X151751000Y-73675000D02*
X149336000Y-76090000D01*
X149336000Y-76090000D02*
X149336000Y-81280000D01*
X149336000Y-81280000D02*
X148711000Y-81905000D01*
X148711000Y-81905000D02*
X147011000Y-81905000D01*
X147011000Y-81905000D02*
X146421000Y-81315000D01*
X146421000Y-81315000D02*
X146421000Y-78105000D01*
X146421000Y-78105000D02*
X146421000Y-69405000D01*
M02*
