G04 #@! TF.FileFunction,Copper,L1,Top,Signal*
%FSLAX46Y46*%
G04 Gerber Fmt 4.6, Leading zero omitted, Abs format (unit mm)*
G04 Created by KiCad (PCBNEW 4.0.6) date 09/05/17 06:11:09*
%MOMM*%
%LPD*%
G01*
G04 APERTURE LIST*
%ADD10C,0.100000*%
%ADD11C,2.100000*%
%ADD12R,2.500000X1.950000*%
%ADD13R,0.650000X0.400000*%
%ADD14R,1.000000X1.250000*%
%ADD15R,0.700000X1.300000*%
%ADD16R,1.300000X0.700000*%
%ADD17R,2.200000X1.200000*%
%ADD18R,1.060000X0.650000*%
%ADD19C,1.000000*%
%ADD20C,0.600000*%
%ADD21C,0.500000*%
%ADD22C,0.750000*%
%ADD23C,0.400000*%
G04 APERTURE END LIST*
D10*
D11*
X157761000Y-67845000D03*
X155221000Y-67845000D03*
X152681000Y-67845000D03*
X150141000Y-67845000D03*
X147601000Y-67845000D03*
X145061000Y-67845000D03*
D12*
X156561000Y-85110000D03*
X156561000Y-88160000D03*
D13*
X144401000Y-73505000D03*
X144401000Y-74805000D03*
X146301000Y-74155000D03*
X144401000Y-74155000D03*
X146301000Y-74805000D03*
X146301000Y-73505000D03*
D11*
X161571000Y-67845000D03*
X161571000Y-70385000D03*
X161571000Y-72925000D03*
X161571000Y-75465000D03*
X161571000Y-78005000D03*
X161571000Y-80545000D03*
X161571000Y-83085000D03*
X161571000Y-85625000D03*
X161571000Y-88165000D03*
X161571000Y-65305000D03*
X159031000Y-65305000D03*
X156491000Y-65305000D03*
X153951000Y-65305000D03*
X151411000Y-65305000D03*
X148871000Y-65305000D03*
X146331000Y-65305000D03*
X143791000Y-65305000D03*
X141251000Y-65305000D03*
X141251000Y-67845000D03*
X141251000Y-70385000D03*
X141251000Y-72925000D03*
X141251000Y-75465000D03*
X141251000Y-78005000D03*
X141251000Y-80545000D03*
X141251000Y-83085000D03*
X141251000Y-85625000D03*
X141251000Y-88165000D03*
D12*
X151541000Y-85120000D03*
X151541000Y-88170000D03*
X146321000Y-85120000D03*
X146321000Y-88170000D03*
D14*
X146341000Y-70925000D03*
X144341000Y-70925000D03*
D15*
X156211000Y-81245000D03*
X154311000Y-81245000D03*
X151791000Y-81245000D03*
X149891000Y-81245000D03*
X149091000Y-77225000D03*
X150991000Y-77225000D03*
D16*
X151471000Y-72855000D03*
X151471000Y-70955000D03*
X148891000Y-72845000D03*
X148891000Y-70945000D03*
D17*
X156831000Y-74575000D03*
X156831000Y-71775000D03*
D18*
X155391000Y-78885000D03*
X155391000Y-77935000D03*
X155391000Y-76985000D03*
X153191000Y-76985000D03*
X153191000Y-78885000D03*
D19*
X153191000Y-75635000D03*
X156801000Y-76405000D03*
X156801000Y-77735000D03*
X154061000Y-88175000D03*
X153071000Y-82605000D03*
X157241000Y-70045000D03*
X147911000Y-80735000D03*
X148741000Y-83045000D03*
X153301000Y-69985000D03*
D20*
X146421000Y-69405000D03*
D21*
X155391000Y-78885000D02*
X158641000Y-78885000D01*
D22*
X153191000Y-76985000D02*
X153191000Y-75635000D01*
X156801000Y-76405000D02*
X158171000Y-76405000D01*
X158171000Y-76405000D02*
X158641000Y-76875000D01*
X158641000Y-76875000D02*
X158641000Y-78885000D01*
X158641000Y-78885000D02*
X158641000Y-85110000D01*
X156561000Y-85110000D02*
X158641000Y-85110000D01*
X158641000Y-85110000D02*
X158701000Y-85110000D01*
X158701000Y-85110000D02*
X158701000Y-86265000D01*
X158701000Y-86265000D02*
X160601000Y-88165000D01*
X160601000Y-88165000D02*
X161571000Y-88165000D01*
X156601000Y-77935000D02*
X155951000Y-77935000D01*
D21*
X155391000Y-77935000D02*
X155951000Y-77935000D01*
D22*
X156601000Y-77935000D02*
X156801000Y-77735000D01*
D21*
X143031000Y-72425000D02*
X143031000Y-72235000D01*
X143031000Y-74155000D02*
X143031000Y-72425000D01*
X143031000Y-72235000D02*
X144341000Y-70925000D01*
X149891000Y-81245000D02*
X149391000Y-81245000D01*
X146391000Y-81095000D02*
X143031000Y-81095000D01*
X147291000Y-81995000D02*
X146391000Y-81095000D01*
X148691000Y-81995000D02*
X147291000Y-81995000D01*
X149391000Y-81295000D02*
X148691000Y-81995000D01*
X149391000Y-81245000D02*
X149391000Y-81295000D01*
X143031000Y-88165000D02*
X143031000Y-81095000D01*
X143031000Y-81095000D02*
X143031000Y-80425000D01*
X143031000Y-80425000D02*
X143031000Y-74155000D01*
D22*
X151541000Y-88170000D02*
X154061000Y-88170000D01*
X154061000Y-88170000D02*
X156551000Y-88170000D01*
X156551000Y-88170000D02*
X156561000Y-88160000D01*
X146321000Y-88170000D02*
X151541000Y-88170000D01*
X141251000Y-88165000D02*
X143031000Y-88165000D01*
X143031000Y-88165000D02*
X146316000Y-88165000D01*
X146316000Y-88165000D02*
X146321000Y-88170000D01*
D23*
X144401000Y-74155000D02*
X143031000Y-74155000D01*
D22*
X151541000Y-83805000D02*
X151541000Y-83345000D01*
X151541000Y-85120000D02*
X151541000Y-83805000D01*
X152281000Y-82605000D02*
X153071000Y-82605000D01*
X151541000Y-83345000D02*
X152281000Y-82605000D01*
X153071000Y-82605000D02*
X153591000Y-83125000D01*
X156401000Y-82455000D02*
X155731000Y-83125000D01*
X156401000Y-81055000D02*
X156401000Y-82455000D01*
X153591000Y-83125000D02*
X155731000Y-83125000D01*
X157751000Y-69535000D02*
X157761000Y-69535000D01*
X157241000Y-70045000D02*
X157751000Y-69535000D01*
X156831000Y-71775000D02*
X156831000Y-70465000D01*
X156831000Y-70465000D02*
X157761000Y-69535000D01*
X157761000Y-69535000D02*
X157761000Y-67845000D01*
X156211000Y-81245000D02*
X156401000Y-81055000D01*
X151541000Y-85120000D02*
X146321000Y-85120000D01*
D21*
X147971000Y-77225000D02*
X147941000Y-77225000D01*
X147911000Y-80735000D02*
X147941000Y-80705000D01*
X147941000Y-80705000D02*
X147941000Y-77225000D01*
X147971000Y-77225000D02*
X149091000Y-77225000D01*
D23*
X147971000Y-77225000D02*
X145201000Y-77225000D01*
X144401000Y-76425000D02*
X144401000Y-74805000D01*
X145201000Y-77225000D02*
X144401000Y-76425000D01*
D21*
X150201000Y-83045000D02*
X148741000Y-83045000D01*
X150011000Y-78845000D02*
X150841000Y-79675000D01*
X150011000Y-75105000D02*
X150011000Y-78845000D01*
X150841000Y-79675000D02*
X150841000Y-82405000D01*
X150841000Y-82405000D02*
X150201000Y-83045000D01*
X151471000Y-72855000D02*
X151471000Y-74415000D01*
X150781000Y-75105000D02*
X151471000Y-74415000D01*
X150781000Y-75105000D02*
X150011000Y-75105000D01*
X150011000Y-75105000D02*
X148431000Y-75105000D01*
D23*
X148431000Y-75105000D02*
X147491000Y-75105000D01*
X147191000Y-74805000D02*
X146301000Y-74805000D01*
X147491000Y-75105000D02*
X147191000Y-74805000D01*
X148891000Y-72845000D02*
X148891000Y-73345000D01*
X148081000Y-74155000D02*
X146301000Y-74155000D01*
X148081000Y-74155000D02*
X148891000Y-73345000D01*
D21*
X152901000Y-70385000D02*
X153301000Y-69985000D01*
X152901000Y-71295000D02*
X152901000Y-70385000D01*
X152291000Y-71905000D02*
X152901000Y-71295000D01*
X149641000Y-71905000D02*
X152291000Y-71905000D01*
X148891000Y-72655000D02*
X149641000Y-71905000D01*
X146421000Y-69405000D02*
X146076000Y-69750000D01*
X146341000Y-70925000D02*
X146341000Y-70015000D01*
X146341000Y-70015000D02*
X146076000Y-69750000D01*
D23*
X146301000Y-73505000D02*
X146301000Y-70965000D01*
X146301000Y-70965000D02*
X146341000Y-70925000D01*
D21*
X146076000Y-69770000D02*
X146076000Y-69750000D01*
X145061000Y-68755000D02*
X146076000Y-69770000D01*
X145061000Y-67845000D02*
X145061000Y-68755000D01*
X153021000Y-72835000D02*
X154391000Y-71465000D01*
X154391000Y-71465000D02*
X154391000Y-69555000D01*
X152681000Y-67845000D02*
X154391000Y-69555000D01*
X150991000Y-76235000D02*
X153021000Y-74205000D01*
X153021000Y-74205000D02*
X153021000Y-72835000D01*
X150991000Y-76235000D02*
X150991000Y-77225000D01*
X152516000Y-68010000D02*
X152681000Y-67845000D01*
X151471000Y-70955000D02*
X151471000Y-69585000D01*
X151471000Y-69585000D02*
X150141000Y-68255000D01*
X150141000Y-67845000D02*
X150141000Y-68255000D01*
X148891000Y-70945000D02*
X148891000Y-69665000D01*
X148891000Y-69665000D02*
X147601000Y-68375000D01*
X147601000Y-67845000D02*
X147601000Y-68375000D01*
X153191000Y-78885000D02*
X153191000Y-81245000D01*
X154311000Y-81245000D02*
X153191000Y-81245000D01*
X153191000Y-81245000D02*
X151791000Y-81245000D01*
D22*
X155391000Y-75215000D02*
X155391000Y-76595000D01*
D21*
X155391000Y-76985000D02*
X155391000Y-76595000D01*
D22*
X155391000Y-75215000D02*
X156031000Y-74575000D01*
X156031000Y-74575000D02*
X156831000Y-74575000D01*
M02*
