G04 #@! TF.FileFunction,Other,Fab,Top*
%FSLAX46Y46*%
G04 Gerber Fmt 4.6, Leading zero omitted, Abs format (unit mm)*
G04 Created by KiCad (PCBNEW 4.0.6) date 09/05/17 06:11:10*
%MOMM*%
%LPD*%
G01*
G04 APERTURE LIST*
%ADD10C,0.100000*%
%ADD11C,0.300000*%
%ADD12C,0.150000*%
%ADD13C,0.120000*%
%ADD14C,0.075000*%
%ADD15C,0.090000*%
G04 APERTURE END LIST*
D10*
D11*
X145096715Y-99336429D02*
X145168144Y-99265000D01*
X145311001Y-99193571D01*
X145668144Y-99193571D01*
X145811001Y-99265000D01*
X145882430Y-99336429D01*
X145953858Y-99479286D01*
X145953858Y-99622143D01*
X145882430Y-99836429D01*
X145025287Y-100693571D01*
X145953858Y-100693571D01*
X147311001Y-99193571D02*
X146596715Y-99193571D01*
X146525286Y-99907857D01*
X146596715Y-99836429D01*
X146739572Y-99765000D01*
X147096715Y-99765000D01*
X147239572Y-99836429D01*
X147311001Y-99907857D01*
X147382429Y-100050714D01*
X147382429Y-100407857D01*
X147311001Y-100550714D01*
X147239572Y-100622143D01*
X147096715Y-100693571D01*
X146739572Y-100693571D01*
X146596715Y-100622143D01*
X146525286Y-100550714D01*
X148096714Y-100622143D02*
X148096714Y-100693571D01*
X148025286Y-100836429D01*
X147953857Y-100907857D01*
X149453858Y-99193571D02*
X148739572Y-99193571D01*
X148668143Y-99907857D01*
X148739572Y-99836429D01*
X148882429Y-99765000D01*
X149239572Y-99765000D01*
X149382429Y-99836429D01*
X149453858Y-99907857D01*
X149525286Y-100050714D01*
X149525286Y-100407857D01*
X149453858Y-100550714D01*
X149382429Y-100622143D01*
X149239572Y-100693571D01*
X148882429Y-100693571D01*
X148739572Y-100622143D01*
X148668143Y-100550714D01*
X150096714Y-99336429D02*
X150168143Y-99265000D01*
X150311000Y-99193571D01*
X150668143Y-99193571D01*
X150811000Y-99265000D01*
X150882429Y-99336429D01*
X150953857Y-99479286D01*
X150953857Y-99622143D01*
X150882429Y-99836429D01*
X150025286Y-100693571D01*
X150953857Y-100693571D01*
X151453857Y-99193571D02*
X152453857Y-99193571D01*
X151811000Y-100693571D01*
X154168142Y-100693571D02*
X154168142Y-99693571D01*
X154168142Y-99836429D02*
X154239570Y-99765000D01*
X154382428Y-99693571D01*
X154596713Y-99693571D01*
X154739570Y-99765000D01*
X154810999Y-99907857D01*
X154810999Y-100693571D01*
X154810999Y-99907857D02*
X154882428Y-99765000D01*
X155025285Y-99693571D01*
X155239570Y-99693571D01*
X155382428Y-99765000D01*
X155453856Y-99907857D01*
X155453856Y-100693571D01*
X156168142Y-100693571D02*
X156168142Y-99693571D01*
X156168142Y-99836429D02*
X156239570Y-99765000D01*
X156382428Y-99693571D01*
X156596713Y-99693571D01*
X156739570Y-99765000D01*
X156810999Y-99907857D01*
X156810999Y-100693571D01*
X156810999Y-99907857D02*
X156882428Y-99765000D01*
X157025285Y-99693571D01*
X157239570Y-99693571D01*
X157382428Y-99765000D01*
X157453856Y-99907857D01*
X157453856Y-100693571D01*
X164363400Y-97358999D02*
X138836400Y-97358999D01*
X164363400Y-94946000D02*
X164363400Y-100058999D01*
X138836400Y-94946000D02*
X138836400Y-100058999D01*
X138836400Y-97358999D02*
X139962904Y-96772578D01*
X138836400Y-97358999D02*
X139962904Y-97945420D01*
X164363400Y-97358999D02*
X163236896Y-96772578D01*
X164363400Y-97358999D02*
X163236896Y-97945420D01*
X131433971Y-70493715D02*
X131505400Y-70565144D01*
X131576829Y-70708001D01*
X131576829Y-71065144D01*
X131505400Y-71208001D01*
X131433971Y-71279430D01*
X131291114Y-71350858D01*
X131148257Y-71350858D01*
X130933971Y-71279430D01*
X130076829Y-70422287D01*
X130076829Y-71350858D01*
X131576829Y-71850858D02*
X131576829Y-72850858D01*
X130076829Y-72208001D01*
X130148257Y-73493714D02*
X130076829Y-73493714D01*
X129933971Y-73422286D01*
X129862543Y-73350857D01*
X130076829Y-74208000D02*
X130076829Y-74493715D01*
X130148257Y-74636572D01*
X130219686Y-74708000D01*
X130433971Y-74850858D01*
X130719686Y-74922286D01*
X131291114Y-74922286D01*
X131433971Y-74850858D01*
X131505400Y-74779429D01*
X131576829Y-74636572D01*
X131576829Y-74350858D01*
X131505400Y-74208000D01*
X131433971Y-74136572D01*
X131291114Y-74065143D01*
X130933971Y-74065143D01*
X130791114Y-74136572D01*
X130719686Y-74208000D01*
X130648257Y-74350858D01*
X130648257Y-74636572D01*
X130719686Y-74779429D01*
X130791114Y-74850858D01*
X130933971Y-74922286D01*
X131076829Y-76208000D02*
X130076829Y-76208000D01*
X131648257Y-75850857D02*
X130576829Y-75493714D01*
X130576829Y-76422286D01*
X131576829Y-77279428D02*
X131576829Y-77422285D01*
X131505400Y-77565142D01*
X131433971Y-77636571D01*
X131291114Y-77708000D01*
X131005400Y-77779428D01*
X130648257Y-77779428D01*
X130362543Y-77708000D01*
X130219686Y-77636571D01*
X130148257Y-77565142D01*
X130076829Y-77422285D01*
X130076829Y-77279428D01*
X130148257Y-77136571D01*
X130219686Y-77065142D01*
X130362543Y-76993714D01*
X130648257Y-76922285D01*
X131005400Y-76922285D01*
X131291114Y-76993714D01*
X131433971Y-77065142D01*
X131505400Y-77136571D01*
X131576829Y-77279428D01*
X130076829Y-79565142D02*
X131076829Y-79565142D01*
X130933971Y-79565142D02*
X131005400Y-79636570D01*
X131076829Y-79779428D01*
X131076829Y-79993713D01*
X131005400Y-80136570D01*
X130862543Y-80207999D01*
X130076829Y-80207999D01*
X130862543Y-80207999D02*
X131005400Y-80279428D01*
X131076829Y-80422285D01*
X131076829Y-80636570D01*
X131005400Y-80779428D01*
X130862543Y-80850856D01*
X130076829Y-80850856D01*
X130076829Y-81565142D02*
X131076829Y-81565142D01*
X130933971Y-81565142D02*
X131005400Y-81636570D01*
X131076829Y-81779428D01*
X131076829Y-81993713D01*
X131005400Y-82136570D01*
X130862543Y-82207999D01*
X130076829Y-82207999D01*
X130862543Y-82207999D02*
X131005400Y-82279428D01*
X131076829Y-82422285D01*
X131076829Y-82636570D01*
X131005400Y-82779428D01*
X130862543Y-82850856D01*
X130076829Y-82850856D01*
X132105400Y-62738000D02*
X132105400Y-90678000D01*
X134137400Y-62738000D02*
X129405400Y-62738000D01*
X134137400Y-90678000D02*
X129405400Y-90678000D01*
X132105400Y-90678000D02*
X131518979Y-89551496D01*
X132105400Y-90678000D02*
X132691821Y-89551496D01*
X132105400Y-62738000D02*
X131518979Y-63864504D01*
X132105400Y-62738000D02*
X132691821Y-63864504D01*
D10*
X157961000Y-84885000D02*
X155161000Y-84885000D01*
X155161000Y-84885000D02*
X155161000Y-88385000D01*
X155161000Y-88385000D02*
X157961000Y-88385000D01*
X157961000Y-88385000D02*
X157961000Y-84885000D01*
X157961000Y-85235000D02*
X155161000Y-85235000D01*
X157961000Y-85410000D02*
X155161000Y-85410000D01*
X146026000Y-73055000D02*
X145176000Y-73055000D01*
X144676000Y-73555000D02*
X144676000Y-75255000D01*
X146026000Y-73055000D02*
X146026000Y-75255000D01*
X146026000Y-75255000D02*
X144676000Y-75255000D01*
X145176000Y-73055000D02*
X144676000Y-73555000D01*
X152941000Y-84895000D02*
X150141000Y-84895000D01*
X150141000Y-84895000D02*
X150141000Y-88395000D01*
X150141000Y-88395000D02*
X152941000Y-88395000D01*
X152941000Y-88395000D02*
X152941000Y-84895000D01*
X152941000Y-85245000D02*
X150141000Y-85245000D01*
X152941000Y-85420000D02*
X150141000Y-85420000D01*
X147721000Y-84895000D02*
X144921000Y-84895000D01*
X144921000Y-84895000D02*
X144921000Y-88395000D01*
X144921000Y-88395000D02*
X147721000Y-88395000D01*
X147721000Y-88395000D02*
X147721000Y-84895000D01*
X147721000Y-85245000D02*
X144921000Y-85245000D01*
X147721000Y-85420000D02*
X144921000Y-85420000D01*
X146341000Y-70305000D02*
X146341000Y-71545000D01*
X144341000Y-70305000D02*
X146341000Y-70305000D01*
X144341000Y-71545000D02*
X144341000Y-70305000D01*
X146341000Y-71545000D02*
X144341000Y-71545000D01*
X156261000Y-80625000D02*
X156261000Y-81865000D01*
X154261000Y-80625000D02*
X156261000Y-80625000D01*
X154261000Y-81865000D02*
X154261000Y-80625000D01*
X156261000Y-81865000D02*
X154261000Y-81865000D01*
X151841000Y-80625000D02*
X151841000Y-81865000D01*
X149841000Y-80625000D02*
X151841000Y-80625000D01*
X149841000Y-81865000D02*
X149841000Y-80625000D01*
X151841000Y-81865000D02*
X149841000Y-81865000D01*
X149041000Y-77845000D02*
X149041000Y-76605000D01*
X151041000Y-77845000D02*
X149041000Y-77845000D01*
X151041000Y-76605000D02*
X151041000Y-77845000D01*
X149041000Y-76605000D02*
X151041000Y-76605000D01*
X152091000Y-72905000D02*
X150851000Y-72905000D01*
X152091000Y-70905000D02*
X152091000Y-72905000D01*
X150851000Y-70905000D02*
X152091000Y-70905000D01*
X150851000Y-72905000D02*
X150851000Y-70905000D01*
X149511000Y-72895000D02*
X148271000Y-72895000D01*
X149511000Y-70895000D02*
X149511000Y-72895000D01*
X148271000Y-70895000D02*
X149511000Y-70895000D01*
X148271000Y-72895000D02*
X148271000Y-70895000D01*
X155831000Y-74425000D02*
X157831000Y-74425000D01*
X157831000Y-74425000D02*
X157831000Y-71925000D01*
X157831000Y-71925000D02*
X155831000Y-71925000D01*
X155831000Y-71925000D02*
X155831000Y-74425000D01*
X155191000Y-78835000D02*
X154541000Y-79485000D01*
X153391000Y-79485000D02*
X154541000Y-79485000D01*
X155191000Y-78835000D02*
X155191000Y-76385000D01*
X153391000Y-76385000D02*
X155191000Y-76385000D01*
X153391000Y-79485000D02*
X153391000Y-76385000D01*
D12*
X153863381Y-88182619D02*
X153863381Y-88754048D01*
X153863381Y-88468334D02*
X152863381Y-88468334D01*
X153006238Y-88563572D01*
X153101476Y-88658810D01*
X153149095Y-88754048D01*
X152863381Y-87563572D02*
X152863381Y-87468333D01*
X152911000Y-87373095D01*
X152958619Y-87325476D01*
X153053857Y-87277857D01*
X153244333Y-87230238D01*
X153482429Y-87230238D01*
X153672905Y-87277857D01*
X153768143Y-87325476D01*
X153815762Y-87373095D01*
X153863381Y-87468333D01*
X153863381Y-87563572D01*
X153815762Y-87658810D01*
X153768143Y-87706429D01*
X153672905Y-87754048D01*
X153482429Y-87801667D01*
X153244333Y-87801667D01*
X153053857Y-87754048D01*
X152958619Y-87706429D01*
X152911000Y-87658810D01*
X152863381Y-87563572D01*
X152863381Y-86611191D02*
X152863381Y-86515952D01*
X152911000Y-86420714D01*
X152958619Y-86373095D01*
X153053857Y-86325476D01*
X153244333Y-86277857D01*
X153482429Y-86277857D01*
X153672905Y-86325476D01*
X153768143Y-86373095D01*
X153815762Y-86420714D01*
X153863381Y-86515952D01*
X153863381Y-86611191D01*
X153815762Y-86706429D01*
X153768143Y-86754048D01*
X153672905Y-86801667D01*
X153482429Y-86849286D01*
X153244333Y-86849286D01*
X153053857Y-86801667D01*
X152958619Y-86754048D01*
X152911000Y-86706429D01*
X152863381Y-86611191D01*
X153196714Y-85420714D02*
X153863381Y-85420714D01*
X153196714Y-85849286D02*
X153720524Y-85849286D01*
X153815762Y-85801667D01*
X153863381Y-85706429D01*
X153863381Y-85563571D01*
X153815762Y-85468333D01*
X153768143Y-85420714D01*
X153339571Y-84611190D02*
X153339571Y-84944524D01*
X153863381Y-84944524D02*
X152863381Y-84944524D01*
X152863381Y-84468333D01*
D13*
X156846714Y-86768333D02*
X156884810Y-86806428D01*
X156922905Y-86920714D01*
X156922905Y-86996904D01*
X156884810Y-87111190D01*
X156808619Y-87187381D01*
X156732429Y-87225476D01*
X156580048Y-87263571D01*
X156465762Y-87263571D01*
X156313381Y-87225476D01*
X156237190Y-87187381D01*
X156161000Y-87111190D01*
X156122905Y-86996904D01*
X156122905Y-86920714D01*
X156161000Y-86806428D01*
X156199095Y-86768333D01*
X156922905Y-86006428D02*
X156922905Y-86463571D01*
X156922905Y-86235000D02*
X156122905Y-86235000D01*
X156237190Y-86311190D01*
X156313381Y-86387381D01*
X156351476Y-86463571D01*
D12*
X140208143Y-76083571D02*
X140541477Y-76083571D01*
X140684334Y-76607381D02*
X140208143Y-76607381D01*
X140208143Y-75607381D01*
X140684334Y-75607381D01*
X141065286Y-76559762D02*
X141208143Y-76607381D01*
X141446239Y-76607381D01*
X141541477Y-76559762D01*
X141589096Y-76512143D01*
X141636715Y-76416905D01*
X141636715Y-76321667D01*
X141589096Y-76226429D01*
X141541477Y-76178810D01*
X141446239Y-76131190D01*
X141255762Y-76083571D01*
X141160524Y-76035952D01*
X141112905Y-75988333D01*
X141065286Y-75893095D01*
X141065286Y-75797857D01*
X141112905Y-75702619D01*
X141160524Y-75655000D01*
X141255762Y-75607381D01*
X141493858Y-75607381D01*
X141636715Y-75655000D01*
X142065286Y-76607381D02*
X142065286Y-75607381D01*
X142303381Y-75607381D01*
X142446239Y-75655000D01*
X142541477Y-75750238D01*
X142589096Y-75845476D01*
X142636715Y-76035952D01*
X142636715Y-76178810D01*
X142589096Y-76369286D01*
X142541477Y-76464524D01*
X142446239Y-76559762D01*
X142303381Y-76607381D01*
X142065286Y-76607381D01*
X143017667Y-76321667D02*
X143493858Y-76321667D01*
X142922429Y-76607381D02*
X143255762Y-75607381D01*
X143589096Y-76607381D01*
X144351001Y-75607381D02*
X144160524Y-75607381D01*
X144065286Y-75655000D01*
X144017667Y-75702619D01*
X143922429Y-75845476D01*
X143874810Y-76035952D01*
X143874810Y-76416905D01*
X143922429Y-76512143D01*
X143970048Y-76559762D01*
X144065286Y-76607381D01*
X144255763Y-76607381D01*
X144351001Y-76559762D01*
X144398620Y-76512143D01*
X144446239Y-76416905D01*
X144446239Y-76178810D01*
X144398620Y-76083571D01*
X144351001Y-76035952D01*
X144255763Y-75988333D01*
X144065286Y-75988333D01*
X143970048Y-76035952D01*
X143922429Y-76083571D01*
X143874810Y-76178810D01*
X144731953Y-75607381D02*
X145065286Y-76607381D01*
X145398620Y-75607381D01*
X146255763Y-76607381D02*
X145684334Y-76607381D01*
X145970048Y-76607381D02*
X145970048Y-75607381D01*
X145874810Y-75750238D01*
X145779572Y-75845476D01*
X145684334Y-75893095D01*
X146684334Y-76226429D02*
X147446239Y-76226429D01*
X148398620Y-75607381D02*
X147922429Y-75607381D01*
X147874810Y-76083571D01*
X147922429Y-76035952D01*
X148017667Y-75988333D01*
X148255763Y-75988333D01*
X148351001Y-76035952D01*
X148398620Y-76083571D01*
X148446239Y-76178810D01*
X148446239Y-76416905D01*
X148398620Y-76512143D01*
X148351001Y-76559762D01*
X148255763Y-76607381D01*
X148017667Y-76607381D01*
X147922429Y-76559762D01*
X147874810Y-76512143D01*
X148779572Y-75607381D02*
X149017667Y-76607381D01*
X149208144Y-75893095D01*
X149398620Y-76607381D01*
X149636715Y-75607381D01*
X150446239Y-75607381D02*
X150255762Y-75607381D01*
X150160524Y-75655000D01*
X150112905Y-75702619D01*
X150017667Y-75845476D01*
X149970048Y-76035952D01*
X149970048Y-76416905D01*
X150017667Y-76512143D01*
X150065286Y-76559762D01*
X150160524Y-76607381D01*
X150351001Y-76607381D01*
X150446239Y-76559762D01*
X150493858Y-76512143D01*
X150541477Y-76416905D01*
X150541477Y-76178810D01*
X150493858Y-76083571D01*
X150446239Y-76035952D01*
X150351001Y-75988333D01*
X150160524Y-75988333D01*
X150065286Y-76035952D01*
X150017667Y-76083571D01*
X149970048Y-76178810D01*
D14*
X145077190Y-74535952D02*
X145481952Y-74535952D01*
X145529571Y-74512143D01*
X145553381Y-74488333D01*
X145577190Y-74440714D01*
X145577190Y-74345476D01*
X145553381Y-74297857D01*
X145529571Y-74274048D01*
X145481952Y-74250238D01*
X145077190Y-74250238D01*
X145124810Y-74035952D02*
X145101000Y-74012142D01*
X145077190Y-73964523D01*
X145077190Y-73845476D01*
X145101000Y-73797857D01*
X145124810Y-73774047D01*
X145172429Y-73750238D01*
X145220048Y-73750238D01*
X145291476Y-73774047D01*
X145577190Y-74059761D01*
X145577190Y-73750238D01*
D12*
X148843381Y-88192619D02*
X148843381Y-88764048D01*
X148843381Y-88478334D02*
X147843381Y-88478334D01*
X147986238Y-88573572D01*
X148081476Y-88668810D01*
X148129095Y-88764048D01*
X147843381Y-87573572D02*
X147843381Y-87478333D01*
X147891000Y-87383095D01*
X147938619Y-87335476D01*
X148033857Y-87287857D01*
X148224333Y-87240238D01*
X148462429Y-87240238D01*
X148652905Y-87287857D01*
X148748143Y-87335476D01*
X148795762Y-87383095D01*
X148843381Y-87478333D01*
X148843381Y-87573572D01*
X148795762Y-87668810D01*
X148748143Y-87716429D01*
X148652905Y-87764048D01*
X148462429Y-87811667D01*
X148224333Y-87811667D01*
X148033857Y-87764048D01*
X147938619Y-87716429D01*
X147891000Y-87668810D01*
X147843381Y-87573572D01*
X147843381Y-86621191D02*
X147843381Y-86525952D01*
X147891000Y-86430714D01*
X147938619Y-86383095D01*
X148033857Y-86335476D01*
X148224333Y-86287857D01*
X148462429Y-86287857D01*
X148652905Y-86335476D01*
X148748143Y-86383095D01*
X148795762Y-86430714D01*
X148843381Y-86525952D01*
X148843381Y-86621191D01*
X148795762Y-86716429D01*
X148748143Y-86764048D01*
X148652905Y-86811667D01*
X148462429Y-86859286D01*
X148224333Y-86859286D01*
X148033857Y-86811667D01*
X147938619Y-86764048D01*
X147891000Y-86716429D01*
X147843381Y-86621191D01*
X148176714Y-85430714D02*
X148843381Y-85430714D01*
X148176714Y-85859286D02*
X148700524Y-85859286D01*
X148795762Y-85811667D01*
X148843381Y-85716429D01*
X148843381Y-85573571D01*
X148795762Y-85478333D01*
X148748143Y-85430714D01*
X148319571Y-84621190D02*
X148319571Y-84954524D01*
X148843381Y-84954524D02*
X147843381Y-84954524D01*
X147843381Y-84478333D01*
D13*
X151826714Y-86778333D02*
X151864810Y-86816428D01*
X151902905Y-86930714D01*
X151902905Y-87006904D01*
X151864810Y-87121190D01*
X151788619Y-87197381D01*
X151712429Y-87235476D01*
X151560048Y-87273571D01*
X151445762Y-87273571D01*
X151293381Y-87235476D01*
X151217190Y-87197381D01*
X151141000Y-87121190D01*
X151102905Y-87006904D01*
X151102905Y-86930714D01*
X151141000Y-86816428D01*
X151179095Y-86778333D01*
X151179095Y-86473571D02*
X151141000Y-86435476D01*
X151102905Y-86359285D01*
X151102905Y-86168809D01*
X151141000Y-86092619D01*
X151179095Y-86054523D01*
X151255286Y-86016428D01*
X151331476Y-86016428D01*
X151445762Y-86054523D01*
X151902905Y-86511666D01*
X151902905Y-86016428D01*
D12*
X143623381Y-88192619D02*
X143623381Y-88764048D01*
X143623381Y-88478334D02*
X142623381Y-88478334D01*
X142766238Y-88573572D01*
X142861476Y-88668810D01*
X142909095Y-88764048D01*
X142623381Y-87573572D02*
X142623381Y-87478333D01*
X142671000Y-87383095D01*
X142718619Y-87335476D01*
X142813857Y-87287857D01*
X143004333Y-87240238D01*
X143242429Y-87240238D01*
X143432905Y-87287857D01*
X143528143Y-87335476D01*
X143575762Y-87383095D01*
X143623381Y-87478333D01*
X143623381Y-87573572D01*
X143575762Y-87668810D01*
X143528143Y-87716429D01*
X143432905Y-87764048D01*
X143242429Y-87811667D01*
X143004333Y-87811667D01*
X142813857Y-87764048D01*
X142718619Y-87716429D01*
X142671000Y-87668810D01*
X142623381Y-87573572D01*
X142623381Y-86621191D02*
X142623381Y-86525952D01*
X142671000Y-86430714D01*
X142718619Y-86383095D01*
X142813857Y-86335476D01*
X143004333Y-86287857D01*
X143242429Y-86287857D01*
X143432905Y-86335476D01*
X143528143Y-86383095D01*
X143575762Y-86430714D01*
X143623381Y-86525952D01*
X143623381Y-86621191D01*
X143575762Y-86716429D01*
X143528143Y-86764048D01*
X143432905Y-86811667D01*
X143242429Y-86859286D01*
X143004333Y-86859286D01*
X142813857Y-86811667D01*
X142718619Y-86764048D01*
X142671000Y-86716429D01*
X142623381Y-86621191D01*
X142956714Y-85430714D02*
X143623381Y-85430714D01*
X142956714Y-85859286D02*
X143480524Y-85859286D01*
X143575762Y-85811667D01*
X143623381Y-85716429D01*
X143623381Y-85573571D01*
X143575762Y-85478333D01*
X143528143Y-85430714D01*
X143099571Y-84621190D02*
X143099571Y-84954524D01*
X143623381Y-84954524D02*
X142623381Y-84954524D01*
X142623381Y-84478333D01*
D13*
X146606714Y-86778333D02*
X146644810Y-86816428D01*
X146682905Y-86930714D01*
X146682905Y-87006904D01*
X146644810Y-87121190D01*
X146568619Y-87197381D01*
X146492429Y-87235476D01*
X146340048Y-87273571D01*
X146225762Y-87273571D01*
X146073381Y-87235476D01*
X145997190Y-87197381D01*
X145921000Y-87121190D01*
X145882905Y-87006904D01*
X145882905Y-86930714D01*
X145921000Y-86816428D01*
X145959095Y-86778333D01*
X145882905Y-86511666D02*
X145882905Y-86016428D01*
X146187667Y-86283095D01*
X146187667Y-86168809D01*
X146225762Y-86092619D01*
X146263857Y-86054523D01*
X146340048Y-86016428D01*
X146530524Y-86016428D01*
X146606714Y-86054523D01*
X146644810Y-86092619D01*
X146682905Y-86168809D01*
X146682905Y-86397381D01*
X146644810Y-86473571D01*
X146606714Y-86511666D01*
D12*
X143793381Y-69627381D02*
X143221952Y-69627381D01*
X143507666Y-69627381D02*
X143507666Y-68627381D01*
X143412428Y-68770238D01*
X143317190Y-68865476D01*
X143221952Y-68913095D01*
X144412428Y-68627381D02*
X144507667Y-68627381D01*
X144602905Y-68675000D01*
X144650524Y-68722619D01*
X144698143Y-68817857D01*
X144745762Y-69008333D01*
X144745762Y-69246429D01*
X144698143Y-69436905D01*
X144650524Y-69532143D01*
X144602905Y-69579762D01*
X144507667Y-69627381D01*
X144412428Y-69627381D01*
X144317190Y-69579762D01*
X144269571Y-69532143D01*
X144221952Y-69436905D01*
X144174333Y-69246429D01*
X144174333Y-69008333D01*
X144221952Y-68817857D01*
X144269571Y-68722619D01*
X144317190Y-68675000D01*
X144412428Y-68627381D01*
X145364809Y-68627381D02*
X145460048Y-68627381D01*
X145555286Y-68675000D01*
X145602905Y-68722619D01*
X145650524Y-68817857D01*
X145698143Y-69008333D01*
X145698143Y-69246429D01*
X145650524Y-69436905D01*
X145602905Y-69532143D01*
X145555286Y-69579762D01*
X145460048Y-69627381D01*
X145364809Y-69627381D01*
X145269571Y-69579762D01*
X145221952Y-69532143D01*
X145174333Y-69436905D01*
X145126714Y-69246429D01*
X145126714Y-69008333D01*
X145174333Y-68817857D01*
X145221952Y-68722619D01*
X145269571Y-68675000D01*
X145364809Y-68627381D01*
X146126714Y-68960714D02*
X146126714Y-69627381D01*
X146126714Y-69055952D02*
X146174333Y-69008333D01*
X146269571Y-68960714D01*
X146412429Y-68960714D01*
X146507667Y-69008333D01*
X146555286Y-69103571D01*
X146555286Y-69627381D01*
X147364810Y-69103571D02*
X147031476Y-69103571D01*
X147031476Y-69627381D02*
X147031476Y-68627381D01*
X147507667Y-68627381D01*
X145174334Y-72782143D02*
X145126715Y-72829762D01*
X144983858Y-72877381D01*
X144888620Y-72877381D01*
X144745762Y-72829762D01*
X144650524Y-72734524D01*
X144602905Y-72639286D01*
X144555286Y-72448810D01*
X144555286Y-72305952D01*
X144602905Y-72115476D01*
X144650524Y-72020238D01*
X144745762Y-71925000D01*
X144888620Y-71877381D01*
X144983858Y-71877381D01*
X145126715Y-71925000D01*
X145174334Y-71972619D01*
X146031477Y-72210714D02*
X146031477Y-72877381D01*
X145793381Y-71829762D02*
X145555286Y-72544048D01*
X146174334Y-72544048D01*
X153570524Y-78947381D02*
X154189572Y-78947381D01*
X153856238Y-79328333D01*
X153999096Y-79328333D01*
X154094334Y-79375952D01*
X154141953Y-79423571D01*
X154189572Y-79518810D01*
X154189572Y-79756905D01*
X154141953Y-79852143D01*
X154094334Y-79899762D01*
X153999096Y-79947381D01*
X153713381Y-79947381D01*
X153618143Y-79899762D01*
X153570524Y-79852143D01*
X154522905Y-78947381D02*
X155141953Y-78947381D01*
X154808619Y-79328333D01*
X154951477Y-79328333D01*
X155046715Y-79375952D01*
X155094334Y-79423571D01*
X155141953Y-79518810D01*
X155141953Y-79756905D01*
X155094334Y-79852143D01*
X155046715Y-79899762D01*
X154951477Y-79947381D01*
X154665762Y-79947381D01*
X154570524Y-79899762D01*
X154522905Y-79852143D01*
X155761000Y-78947381D02*
X155856239Y-78947381D01*
X155951477Y-78995000D01*
X155999096Y-79042619D01*
X156046715Y-79137857D01*
X156094334Y-79328333D01*
X156094334Y-79566429D01*
X156046715Y-79756905D01*
X155999096Y-79852143D01*
X155951477Y-79899762D01*
X155856239Y-79947381D01*
X155761000Y-79947381D01*
X155665762Y-79899762D01*
X155618143Y-79852143D01*
X155570524Y-79756905D01*
X155522905Y-79566429D01*
X155522905Y-79328333D01*
X155570524Y-79137857D01*
X155618143Y-79042619D01*
X155665762Y-78995000D01*
X155761000Y-78947381D01*
X156522905Y-79947381D02*
X156522905Y-78947381D01*
X156618143Y-79566429D02*
X156903858Y-79947381D01*
X156903858Y-79280714D02*
X156522905Y-79661667D01*
D14*
X155177667Y-81471190D02*
X155011000Y-81233095D01*
X154891953Y-81471190D02*
X154891953Y-80971190D01*
X155082429Y-80971190D01*
X155130048Y-80995000D01*
X155153857Y-81018810D01*
X155177667Y-81066429D01*
X155177667Y-81137857D01*
X155153857Y-81185476D01*
X155130048Y-81209286D01*
X155082429Y-81233095D01*
X154891953Y-81233095D01*
X155653857Y-81471190D02*
X155368143Y-81471190D01*
X155511000Y-81471190D02*
X155511000Y-80971190D01*
X155463381Y-81042619D01*
X155415762Y-81090238D01*
X155368143Y-81114048D01*
D12*
X150198143Y-78947381D02*
X149721952Y-78947381D01*
X149674333Y-79423571D01*
X149721952Y-79375952D01*
X149817190Y-79328333D01*
X150055286Y-79328333D01*
X150150524Y-79375952D01*
X150198143Y-79423571D01*
X150245762Y-79518810D01*
X150245762Y-79756905D01*
X150198143Y-79852143D01*
X150150524Y-79899762D01*
X150055286Y-79947381D01*
X149817190Y-79947381D01*
X149721952Y-79899762D01*
X149674333Y-79852143D01*
X151102905Y-78947381D02*
X150912428Y-78947381D01*
X150817190Y-78995000D01*
X150769571Y-79042619D01*
X150674333Y-79185476D01*
X150626714Y-79375952D01*
X150626714Y-79756905D01*
X150674333Y-79852143D01*
X150721952Y-79899762D01*
X150817190Y-79947381D01*
X151007667Y-79947381D01*
X151102905Y-79899762D01*
X151150524Y-79852143D01*
X151198143Y-79756905D01*
X151198143Y-79518810D01*
X151150524Y-79423571D01*
X151102905Y-79375952D01*
X151007667Y-79328333D01*
X150817190Y-79328333D01*
X150721952Y-79375952D01*
X150674333Y-79423571D01*
X150626714Y-79518810D01*
X151626714Y-79947381D02*
X151626714Y-78947381D01*
X151721952Y-79566429D02*
X152007667Y-79947381D01*
X152007667Y-79280714D02*
X151626714Y-79661667D01*
D14*
X150757667Y-81471190D02*
X150591000Y-81233095D01*
X150471953Y-81471190D02*
X150471953Y-80971190D01*
X150662429Y-80971190D01*
X150710048Y-80995000D01*
X150733857Y-81018810D01*
X150757667Y-81066429D01*
X150757667Y-81137857D01*
X150733857Y-81185476D01*
X150710048Y-81209286D01*
X150662429Y-81233095D01*
X150471953Y-81233095D01*
X150948143Y-81018810D02*
X150971953Y-80995000D01*
X151019572Y-80971190D01*
X151138619Y-80971190D01*
X151186238Y-80995000D01*
X151210048Y-81018810D01*
X151233857Y-81066429D01*
X151233857Y-81114048D01*
X151210048Y-81185476D01*
X150924334Y-81471190D01*
X151233857Y-81471190D01*
D12*
X149279095Y-78522619D02*
X149326714Y-78475000D01*
X149421952Y-78427381D01*
X149660048Y-78427381D01*
X149755286Y-78475000D01*
X149802905Y-78522619D01*
X149850524Y-78617857D01*
X149850524Y-78713095D01*
X149802905Y-78855952D01*
X149231476Y-79427381D01*
X149850524Y-79427381D01*
X150231476Y-78522619D02*
X150279095Y-78475000D01*
X150374333Y-78427381D01*
X150612429Y-78427381D01*
X150707667Y-78475000D01*
X150755286Y-78522619D01*
X150802905Y-78617857D01*
X150802905Y-78713095D01*
X150755286Y-78855952D01*
X150183857Y-79427381D01*
X150802905Y-79427381D01*
D14*
X149957667Y-77451190D02*
X149791000Y-77213095D01*
X149671953Y-77451190D02*
X149671953Y-76951190D01*
X149862429Y-76951190D01*
X149910048Y-76975000D01*
X149933857Y-76998810D01*
X149957667Y-77046429D01*
X149957667Y-77117857D01*
X149933857Y-77165476D01*
X149910048Y-77189286D01*
X149862429Y-77213095D01*
X149671953Y-77213095D01*
X150124334Y-76951190D02*
X150433857Y-76951190D01*
X150267191Y-77141667D01*
X150338619Y-77141667D01*
X150386238Y-77165476D01*
X150410048Y-77189286D01*
X150433857Y-77236905D01*
X150433857Y-77355952D01*
X150410048Y-77403571D01*
X150386238Y-77427381D01*
X150338619Y-77451190D01*
X150195762Y-77451190D01*
X150148143Y-77427381D01*
X150124334Y-77403571D01*
D12*
X152768619Y-72666905D02*
X152721000Y-72619286D01*
X152673381Y-72524048D01*
X152673381Y-72285952D01*
X152721000Y-72190714D01*
X152768619Y-72143095D01*
X152863857Y-72095476D01*
X152959095Y-72095476D01*
X153101952Y-72143095D01*
X153673381Y-72714524D01*
X153673381Y-72095476D01*
X152768619Y-71714524D02*
X152721000Y-71666905D01*
X152673381Y-71571667D01*
X152673381Y-71333571D01*
X152721000Y-71238333D01*
X152768619Y-71190714D01*
X152863857Y-71143095D01*
X152959095Y-71143095D01*
X153101952Y-71190714D01*
X153673381Y-71762143D01*
X153673381Y-71143095D01*
D14*
X151697190Y-71988333D02*
X151459095Y-72155000D01*
X151697190Y-72274047D02*
X151197190Y-72274047D01*
X151197190Y-72083571D01*
X151221000Y-72035952D01*
X151244810Y-72012143D01*
X151292429Y-71988333D01*
X151363857Y-71988333D01*
X151411476Y-72012143D01*
X151435286Y-72035952D01*
X151459095Y-72083571D01*
X151459095Y-72274047D01*
X151363857Y-71559762D02*
X151697190Y-71559762D01*
X151173381Y-71678809D02*
X151530524Y-71797857D01*
X151530524Y-71488333D01*
D12*
X150188619Y-72656905D02*
X150141000Y-72609286D01*
X150093381Y-72514048D01*
X150093381Y-72275952D01*
X150141000Y-72180714D01*
X150188619Y-72133095D01*
X150283857Y-72085476D01*
X150379095Y-72085476D01*
X150521952Y-72133095D01*
X151093381Y-72704524D01*
X151093381Y-72085476D01*
X150188619Y-71704524D02*
X150141000Y-71656905D01*
X150093381Y-71561667D01*
X150093381Y-71323571D01*
X150141000Y-71228333D01*
X150188619Y-71180714D01*
X150283857Y-71133095D01*
X150379095Y-71133095D01*
X150521952Y-71180714D01*
X151093381Y-71752143D01*
X151093381Y-71133095D01*
D14*
X149117190Y-71978333D02*
X148879095Y-72145000D01*
X149117190Y-72264047D02*
X148617190Y-72264047D01*
X148617190Y-72073571D01*
X148641000Y-72025952D01*
X148664810Y-72002143D01*
X148712429Y-71978333D01*
X148783857Y-71978333D01*
X148831476Y-72002143D01*
X148855286Y-72025952D01*
X148879095Y-72073571D01*
X148879095Y-72264047D01*
X148617190Y-71525952D02*
X148617190Y-71764047D01*
X148855286Y-71787857D01*
X148831476Y-71764047D01*
X148807667Y-71716428D01*
X148807667Y-71597381D01*
X148831476Y-71549762D01*
X148855286Y-71525952D01*
X148902905Y-71502143D01*
X149021952Y-71502143D01*
X149069571Y-71525952D01*
X149093381Y-71549762D01*
X149117190Y-71597381D01*
X149117190Y-71716428D01*
X149093381Y-71764047D01*
X149069571Y-71787857D01*
D12*
X159028619Y-75532143D02*
X158981000Y-75484524D01*
X158933381Y-75389286D01*
X158933381Y-75151190D01*
X158981000Y-75055952D01*
X159028619Y-75008333D01*
X159123857Y-74960714D01*
X159219095Y-74960714D01*
X159361952Y-75008333D01*
X159933381Y-75579762D01*
X159933381Y-74960714D01*
X159885762Y-74484524D02*
X159933381Y-74484524D01*
X160028619Y-74532143D01*
X160076238Y-74579762D01*
X159028619Y-74103572D02*
X158981000Y-74055953D01*
X158933381Y-73960715D01*
X158933381Y-73722619D01*
X158981000Y-73627381D01*
X159028619Y-73579762D01*
X159123857Y-73532143D01*
X159219095Y-73532143D01*
X159361952Y-73579762D01*
X159933381Y-74151191D01*
X159933381Y-73532143D01*
X159266714Y-71913095D02*
X159933381Y-71913095D01*
X159266714Y-72341667D02*
X159790524Y-72341667D01*
X159885762Y-72294048D01*
X159933381Y-72198810D01*
X159933381Y-72055952D01*
X159885762Y-71960714D01*
X159838143Y-71913095D01*
X159933381Y-71436905D02*
X158933381Y-71436905D01*
X159409571Y-71436905D02*
X159409571Y-70865476D01*
X159933381Y-70865476D02*
X158933381Y-70865476D01*
D15*
X157102429Y-73275000D02*
X157102429Y-73560714D01*
X156502429Y-73560714D01*
X157102429Y-72760714D02*
X157102429Y-73103571D01*
X157102429Y-72932143D02*
X156502429Y-72932143D01*
X156588143Y-72989286D01*
X156645286Y-73046428D01*
X156673857Y-73103571D01*
D12*
X150791000Y-74487381D02*
X151362429Y-74487381D01*
X151076714Y-75487381D02*
X151076714Y-74487381D01*
X152171953Y-75487381D02*
X151695762Y-75487381D01*
X151695762Y-74487381D01*
X152362429Y-74487381D02*
X152695762Y-75487381D01*
X153029096Y-74487381D01*
X153791001Y-74487381D02*
X153600524Y-74487381D01*
X153505286Y-74535000D01*
X153457667Y-74582619D01*
X153362429Y-74725476D01*
X153314810Y-74915952D01*
X153314810Y-75296905D01*
X153362429Y-75392143D01*
X153410048Y-75439762D01*
X153505286Y-75487381D01*
X153695763Y-75487381D01*
X153791001Y-75439762D01*
X153838620Y-75392143D01*
X153886239Y-75296905D01*
X153886239Y-75058810D01*
X153838620Y-74963571D01*
X153791001Y-74915952D01*
X153695763Y-74868333D01*
X153505286Y-74868333D01*
X153410048Y-74915952D01*
X153362429Y-74963571D01*
X153314810Y-75058810D01*
X154267191Y-74582619D02*
X154314810Y-74535000D01*
X154410048Y-74487381D01*
X154648144Y-74487381D01*
X154743382Y-74535000D01*
X154791001Y-74582619D01*
X154838620Y-74677857D01*
X154838620Y-74773095D01*
X154791001Y-74915952D01*
X154219572Y-75487381D01*
X154838620Y-75487381D01*
X155743382Y-74487381D02*
X155267191Y-74487381D01*
X155219572Y-74963571D01*
X155267191Y-74915952D01*
X155362429Y-74868333D01*
X155600525Y-74868333D01*
X155695763Y-74915952D01*
X155743382Y-74963571D01*
X155791001Y-75058810D01*
X155791001Y-75296905D01*
X155743382Y-75392143D01*
X155695763Y-75439762D01*
X155600525Y-75487381D01*
X155362429Y-75487381D01*
X155267191Y-75439762D01*
X155219572Y-75392143D01*
X156648144Y-74487381D02*
X156457667Y-74487381D01*
X156362429Y-74535000D01*
X156314810Y-74582619D01*
X156219572Y-74725476D01*
X156171953Y-74915952D01*
X156171953Y-75296905D01*
X156219572Y-75392143D01*
X156267191Y-75439762D01*
X156362429Y-75487381D01*
X156552906Y-75487381D01*
X156648144Y-75439762D01*
X156695763Y-75392143D01*
X156743382Y-75296905D01*
X156743382Y-75058810D01*
X156695763Y-74963571D01*
X156648144Y-74915952D01*
X156552906Y-74868333D01*
X156362429Y-74868333D01*
X156267191Y-74915952D01*
X156219572Y-74963571D01*
X156171953Y-75058810D01*
X157219572Y-75487381D02*
X157410048Y-75487381D01*
X157505287Y-75439762D01*
X157552906Y-75392143D01*
X157648144Y-75249286D01*
X157695763Y-75058810D01*
X157695763Y-74677857D01*
X157648144Y-74582619D01*
X157600525Y-74535000D01*
X157505287Y-74487381D01*
X157314810Y-74487381D01*
X157219572Y-74535000D01*
X157171953Y-74582619D01*
X157124334Y-74677857D01*
X157124334Y-74915952D01*
X157171953Y-75011190D01*
X157219572Y-75058810D01*
X157314810Y-75106429D01*
X157505287Y-75106429D01*
X157600525Y-75058810D01*
X157648144Y-75011190D01*
X157695763Y-74915952D01*
D14*
X154017190Y-78315952D02*
X154421952Y-78315952D01*
X154469571Y-78292143D01*
X154493381Y-78268333D01*
X154517190Y-78220714D01*
X154517190Y-78125476D01*
X154493381Y-78077857D01*
X154469571Y-78054048D01*
X154421952Y-78030238D01*
X154017190Y-78030238D01*
X154517190Y-77530238D02*
X154517190Y-77815952D01*
X154517190Y-77673095D02*
X154017190Y-77673095D01*
X154088619Y-77720714D01*
X154136238Y-77768333D01*
X154160048Y-77815952D01*
M02*
